<svg width="27" height="29" viewBox="0 0 27 29" fill="none" xmlns="http://www.w3.org/2000/svg">
<path fill-rule="evenodd" clip-rule="evenodd" d="M25.5554 12.2057H1.79004C1.23804 12.2057 0.790039 11.7577 0.790039 11.2057C0.790039 10.6537 1.23804 10.2057 1.79004 10.2057H25.5554C26.1074 10.2057 26.5554 10.6537 26.5554 11.2057C26.5554 11.7577 26.1074 12.2057 25.5554 12.2057Z" fill="#8456EC"/>
<path fill-rule="evenodd" clip-rule="evenodd" d="M19.6016 17.4128C19.0496 17.4128 18.5963 16.9648 18.5963 16.4128C18.5963 15.8608 19.0376 15.4128 19.5896 15.4128H19.6016C20.1536 15.4128 20.6016 15.8608 20.6016 16.4128C20.6016 16.9648 20.1536 17.4128 19.6016 17.4128Z" fill="#8456EC"/>
<path fill-rule="evenodd" clip-rule="evenodd" d="M13.685 17.4128C13.133 17.4128 12.6796 16.9648 12.6796 16.4128C12.6796 15.8608 13.121 15.4128 13.673 15.4128H13.685C14.237 15.4128 14.685 15.8608 14.685 16.4128C14.685 16.9648 14.237 17.4128 13.685 17.4128Z" fill="#8456EC"/>
<path fill-rule="evenodd" clip-rule="evenodd" d="M7.75587 17.4128C7.20387 17.4128 6.74921 16.9648 6.74921 16.4128C6.74921 15.8608 7.19187 15.4128 7.74387 15.4128H7.75587C8.30787 15.4128 8.75587 15.8608 8.75587 16.4128C8.75587 16.9648 8.30787 17.4128 7.75587 17.4128Z" fill="#8456EC"/>
<path fill-rule="evenodd" clip-rule="evenodd" d="M19.6016 22.5951C19.0496 22.5951 18.5963 22.1471 18.5963 21.5951C18.5963 21.0431 19.0376 20.5951 19.5896 20.5951H19.6016C20.1536 20.5951 20.6016 21.0431 20.6016 21.5951C20.6016 22.1471 20.1536 22.5951 19.6016 22.5951Z" fill="#8456EC"/>
<path fill-rule="evenodd" clip-rule="evenodd" d="M13.685 22.5951C13.133 22.5951 12.6796 22.1471 12.6796 21.5951C12.6796 21.0431 13.121 20.5951 13.673 20.5951H13.685C14.237 20.5951 14.685 21.0431 14.685 21.5951C14.685 22.1471 14.237 22.5951 13.685 22.5951Z" fill="#8456EC"/>
<path fill-rule="evenodd" clip-rule="evenodd" d="M7.75587 22.5951C7.20387 22.5951 6.74921 22.1471 6.74921 21.5951C6.74921 21.0431 7.19187 20.5951 7.74387 20.5951H7.75587C8.30787 20.5951 8.75587 21.0431 8.75587 21.5951C8.75587 22.1471 8.30787 22.5951 7.75587 22.5951Z" fill="#8456EC"/>
<path fill-rule="evenodd" clip-rule="evenodd" d="M19.058 6.72133C18.506 6.72133 18.058 6.27333 18.058 5.72133V1.33333C18.058 0.781328 18.506 0.333328 19.058 0.333328C19.61 0.333328 20.058 0.781328 20.058 1.33333V5.72133C20.058 6.27333 19.61 6.72133 19.058 6.72133Z" fill="#8456EC"/>
<path fill-rule="evenodd" clip-rule="evenodd" d="M8.28711 6.72133C7.73511 6.72133 7.28711 6.27333 7.28711 5.72133V1.33333C7.28711 0.781328 7.73511 0.333328 8.28711 0.333328C8.83911 0.333328 9.28711 0.781328 9.28711 1.33333V5.72133C9.28711 6.27333 8.83911 6.72133 8.28711 6.72133Z" fill="#8456EC"/>
<mask id="mask0_2386_202" style="mask-type:alpha" maskUnits="userSpaceOnUse" x="0" y="2" width="27" height="27">
<path fill-rule="evenodd" clip-rule="evenodd" d="M0.666687 2.4388H26.6667V29H0.666687V2.4388Z" fill="white"/>
</mask>
<g mask="url(#mask0_2386_202)">
<path fill-rule="evenodd" clip-rule="evenodd" d="M8.02802 4.4388C4.57069 4.4388 2.66669 6.2828 2.66669 9.6308V21.6961C2.66669 25.1175 4.57069 27.0001 8.02802 27.0001H19.3054C22.7627 27.0001 24.6667 25.1521 24.6667 21.7975V9.6308C24.672 7.98413 24.2294 6.70413 23.3507 5.82413C22.4467 4.91746 21.0534 4.4388 19.3174 4.4388H8.02802ZM19.3054 29.0001H8.02802C3.48802 29.0001 0.666687 26.2015 0.666687 21.6961V9.6308C0.666687 5.19346 3.48802 2.4388 8.02802 2.4388H19.3174C21.596 2.4388 23.48 3.12146 24.7667 4.4108C26.016 5.66546 26.6734 7.46946 26.6667 9.63346V21.7975C26.6667 26.2401 23.8454 29.0001 19.3054 29.0001Z" fill="#8456EC"/>
</g>
</svg>
