<svg width="32" height="32" viewBox="0 0 32 32" fill="none" xmlns="http://www.w3.org/2000/svg">
<path fill-rule="evenodd" clip-rule="evenodd" d="M16.334 11.3333C15.0473 11.3333 14.0007 12.38 14.0007 13.668C14.0007 14.9546 15.0473 16 16.334 16C17.6207 16 18.6673 14.9546 18.6673 13.668C18.6673 12.38 17.6207 11.3333 16.334 11.3333ZM16.334 18C13.9447 18 12.0007 16.0573 12.0007 13.668C12.0007 11.2773 13.9447 9.33331 16.334 9.33331C18.7233 9.33331 20.6673 11.2773 20.6673 13.668C20.6673 16.0573 18.7233 18 16.334 18Z" fill="#8456EC"/>
<mask id="mask0_18_962" style="mask-type:alpha" maskUnits="userSpaceOnUse" x="5" y="2" width="23" height="27">
<path fill-rule="evenodd" clip-rule="evenodd" d="M5.33331 2.66666H27.3326V28.6667H5.33331V2.66666Z" fill="white"/>
</mask>
<g mask="url(#mask0_18_962)">
<path fill-rule="evenodd" clip-rule="evenodd" d="M16.3326 4.66666C11.37 4.66666 7.33264 8.74266 7.33264 13.7507C7.33264 20.1227 14.8313 26.3307 16.3326 26.6613C17.834 26.3293 25.3326 20.1213 25.3326 13.7507C25.3326 8.74266 21.2953 4.66666 16.3326 4.66666ZM16.3326 28.6667C13.9406 28.6667 5.33264 21.264 5.33264 13.7507C5.33264 7.63866 10.2673 2.66666 16.3326 2.66666C22.398 2.66666 27.3326 7.63866 27.3326 13.7507C27.3326 21.264 18.7246 28.6667 16.3326 28.6667Z" fill="#8456EC"/>
</g>
</svg>
